<!-- icon666.com - MILLIONS vector ICONS FREE -->
<svg version="1.1" id="Capa_1" xmlns="http://www.w3.org/2000/svg"
  xmlns:xlink="http://www.w3.org/1999/xlink" viewBox="0 0 512 512" width="64px" height="64px"
  style="enable-background:new 0 0 512.003 512.003;" xml:space="preserve">
  <path style="fill:#FFA000;" d="M268.154,147.937c-52.831,0-96.057,43.226-96.057,96.057h192.114 C364.211,190.362,320.986,147.937,268.154,147.937z"/><path style="fill:#4FC3F7;" d="M484.283,260.004H52.026v8.005c0,66.439,53.632,120.071,120.071,120.071h192.114 c66.439,0,120.071-53.632,120.071-120.071V260.004z"/><g>
    <path style="fill:#1A237E;" d="M307.37,314.628c-14.537,0-28.305-5.972-38.423-16.546c-10.118,10.574-23.878,16.546-38.415,16.546 c-14.545,0.008-28.305-5.972-38.423-16.546c-9.934,10.31-23.974,16.354-38.423,16.354c-2.209,0-4.002-1.793-4.002-4.002 s1.793-4.002,4.002-4.002c13.632,0,26.824-6.324,35.293-16.906c0.76-0.945,1.905-1.505,3.122-1.505c0,0,0,0,0.008,0 c1.209,0,2.353,0.544,3.114,1.497c8.773,10.87,21.645,17.122,35.309,17.114c13.664,0,26.528-6.236,35.301-17.114 c1.529-1.889,4.707-1.889,6.236,0c8.773,10.87,21.637,17.114,35.301,17.114c13.672,0,26.536-6.236,35.309-17.114 c0.768-0.945,1.905-1.497,3.122-1.497h0.008c1.209,0,2.361,0.552,3.122,1.505c8.469,10.582,21.661,16.906,35.293,16.906 c2.209,0,4.002,1.793,4.002,4.002s-1.793,4.002-4.002,4.002c-14.449,0-28.489-6.044-38.423-16.354 C335.682,308.649,321.922,314.628,307.37,314.628z"/><path style="fill:#1A237E;" d="M307.37,350.65c-14.537,0-28.305-5.972-38.423-16.546c-10.118,10.574-23.878,16.546-38.415,16.546 c-14.545,0.008-28.305-5.972-38.423-16.546c-9.934,10.31-23.974,16.354-38.423,16.354c-2.209,0-4.002-1.793-4.002-4.002 s1.793-4.002,4.002-4.002c13.632,0,26.824-6.324,35.293-16.906c0.76-0.945,1.953-1.753,3.13-1.505c1.209,0,2.353,0.544,3.114,1.497 c8.773,10.87,21.645,17.122,35.309,17.114c13.664,0,26.528-6.236,35.301-17.114c1.529-1.889,4.707-1.889,6.236,0 c8.773,10.87,21.637,17.114,35.301,17.114c13.672,0,26.536-6.236,35.309-17.114c0.768-0.945,1.905-1.497,3.122-1.497h0.008 c1.209,0,2.361,0.552,3.122,1.505c8.469,10.582,21.661,16.906,35.293,16.906c2.209,0,4.002,1.793,4.002,4.002 s-1.793,4.002-4.002,4.002c-14.449,0-28.489-6.044-38.423-16.354C335.682,344.67,321.922,350.65,307.37,350.65z"/></g><path style="fill:#66BB6A;" d="M63.233,126.324L34.415,96.707c20.012-3.202,40.824,3.202,56.033,18.411s20.812,36.822,17.61,56.834" /><path style="fill:#1A237E;" d="M108.059,175.954c-0.208,0-0.424-0.016-0.64-0.048c-2.177-0.344-3.666-2.401-3.322-4.587 c3.186-19.908-2.978-39.864-16.49-53.368C75.496,105.84,59.67,99.444,43.101,99.917l22.99,23.622 c1.537,1.585,1.505,4.114-0.08,5.659s-4.122,1.505-5.659-0.08L31.534,99.5c-1.041-1.073-1.401-2.634-0.929-4.05 c0.472-1.417,1.689-2.457,3.17-2.69c21.589-3.442,43.818,3.85,59.499,19.532c15.321,15.321,22.325,37.854,18.731,60.3 C111.701,174.553,109.996,175.954,108.059,175.954z"/><path style="fill:#66BB6A;" d="M40.019,165.548H3.997c12.007-16.009,31.219-27.216,52.831-27.216s40.824,11.207,52.831,27.216"/><path style="fill:#1A237E;" d="M109.668,169.55c-1.217,0-2.417-0.552-3.202-1.601c-12.031-16.042-30.586-25.615-49.629-25.615 c-16.354,0-32.347,7.06-44.154,19.211h27.336c2.209,0,4.002,1.793,4.002,4.002s-1.793,4.002-4.002,4.002H3.997 c-1.513,0-2.898-0.857-3.578-2.209c-0.672-1.353-0.528-2.978,0.376-4.186c13.536-18.051,34.484-28.825,56.033-28.825 s42.497,10.774,56.033,28.825c1.329,1.769,0.969,4.275-0.8,5.603C111.341,169.286,110.501,169.55,109.668,169.55z"/><path style="fill:#66BB6A;" d="M156.088,126.324l29.618-28.817c-20.012-3.202-40.824,2.401-56.834,17.61 c-16.01,15.209-21.613,36.021-18.411,56.033"/><path style="fill:#1A237E;" d="M110.453,175.153c-1.937,0-3.634-1.401-3.946-3.37c-3.61-22.589,3.53-44.298,19.612-59.563 c16.202-15.393,38.143-22.197,60.22-18.659c1.497,0.24,2.722,1.305,3.178,2.746s0.064,3.018-1.025,4.074l-29.618,28.817 c-1.585,1.545-4.122,1.505-5.659-0.08c-1.537-1.585-1.505-4.122,0.08-5.659l23.414-22.782c-16.618-0.576-32.755,5.627-45.083,17.346 c-14.128,13.424-20.404,32.563-17.218,52.503c0.344,2.185-1.137,4.235-3.322,4.587C110.877,175.137,110.661,175.153,110.453,175.153 z"/><path style="fill:#66BB6A;" d="M178.501,166.348h36.021c-12.007-16.81-31.219-27.216-52.831-27.216s-40.824,10.406-52.831,27.216"/><g><path style="fill:#1A237E;" d="M108.86,170.35c-0.808,0-1.617-0.24-2.321-0.744c-1.801-1.289-2.217-3.786-0.929-5.579 c13.12-18.363,33.556-28.889,56.089-28.889c22.525,0,42.97,10.526,56.081,28.889c0.873,1.217,0.993,2.826,0.304,4.162 s-2.057,2.169-3.562,2.169h-36.021c-2.209,0-4.002-1.793-4.002-4.002s1.793-4.002,4.002-4.002h27.592 c-11.455-12.303-27.248-19.211-44.402-19.211c-19.908,0-37.983,9.31-49.573,25.535C111.333,169.766,110.108,170.35,108.86,170.35z" /><path style="fill:#1A237E;" d="M108.86,264.006H92.85c-2.209,0-4.002-1.793-4.002-4.002s1.793-4.002,4.002-4.002h16.009 c2.209,0,4.002,1.793,4.002,4.002S111.069,264.006,108.86,264.006z"/><path style="fill:#1A237E;" d="M108.86,296.025H90.449c-2.209,0-4.002-1.793-4.002-4.002s1.793-4.002,4.002-4.002h18.411 c2.209,0,4.002,1.793,4.002,4.002S111.069,296.025,108.86,296.025z"/><path style="fill:#1A237E;" d="M108.86,328.044H88.848c-2.209,0-4.002-1.793-4.002-4.002s1.793-4.002,4.002-4.002h20.012 c2.209,0,4.002,1.793,4.002,4.002S111.069,328.044,108.86,328.044z"/><path style="fill:#1A237E;" d="M172.097,424.101h-32.019c-2.209,0-4.002-1.793-4.002-4.002c0-6.62-5.387-12.007-12.007-12.007 c-6.62,0-12.007,5.387-12.007,12.007c0,2.209-1.793,4.002-4.002,4.002s-4.002-1.793-4.002-4.002 c0-11.039,8.981-20.012,20.012-20.012c9.67,0,17.747,6.884,19.612,16.009h28.417c2.209,0,4.002,1.793,4.002,4.002 S174.307,424.101,172.097,424.101z"/><path style="fill:#1A237E;" d="M106.458,424.101c-2.209,0-4.002-1.793-4.002-4.002c0-6.62-5.387-12.007-12.007-12.007 s-12.007,5.387-12.007,12.007c0,2.209-1.793,4.002-4.002,4.002H42.42c-2.209,0-4.002-1.793-4.002-4.002s1.793-4.002,4.002-4.002 h28.417c1.857-9.125,9.942-16.009,19.612-16.009c11.031,0,20.012,8.973,20.012,20.012 C110.461,422.308,108.668,424.101,106.458,424.101z"/><path style="fill:#1A237E;" d="M132.065,392.082c-2.105,0-3.866-1.641-3.994-3.77l-11.207-192.114 c-0.128-2.209,1.553-4.098,3.762-4.227c2.305-0.08,4.106,1.553,4.227,3.762l11.207,192.114c0.128,2.201-1.553,4.106-3.762,4.227 C132.226,392.082,132.146,392.082,132.065,392.082z"/><path style="fill:#1A237E;" d="M84.045,392.082c-0.088,0-0.176,0-0.272-0.008c-2.201-0.152-3.874-2.057-3.73-4.259L92.85,195.702 c0.152-2.201,2.073-3.754,4.259-3.73c2.201,0.152,3.874,2.057,3.73,4.259L88.031,388.344 C87.895,390.465,86.134,392.082,84.045,392.082z"/><path style="fill:#1A237E;" d="M400.233,159.944c-2.209,0-4.002-1.793-4.002-4.002c0-13.016-10.999-24.014-24.014-24.014 c-2.209,0-4.002-1.793-4.002-4.002s1.793-4.002,4.002-4.002c17.354,0,32.019,14.665,32.019,32.019 C404.235,158.151,402.442,159.944,400.233,159.944z"/><path style="fill:#1A237E;" d="M400.233,159.944c-2.209,0-4.002-1.793-4.002-4.002c0-17.354,14.665-32.019,32.019-32.019 c2.209,0,4.002,1.793,4.002,4.002s-1.793,4.002-4.002,4.002c-13.016,0-24.014,10.999-24.014,24.014 C404.235,158.151,402.442,159.944,400.233,159.944z"/><path style="fill:#1A237E;" d="M412.24,159.944h-24.014c-2.209,0-4.002-1.793-4.002-4.002s1.793-4.002,4.002-4.002h24.014 c2.209,0,4.002,1.793,4.002,4.002S414.449,159.944,412.24,159.944z"/><path style="fill:#1A237E;" d="M444.259,59.885c-2.209,0-4.002-1.793-4.002-4.002c0-13.016-10.999-24.014-24.014-24.014 c-2.209,0-4.002-1.793-4.002-4.002s1.793-4.002,4.002-4.002c17.354,0,32.019,14.665,32.019,32.019 C448.261,58.092,446.468,59.885,444.259,59.885z"/><path style="fill:#1A237E;" d="M444.259,59.885c-2.209,0-4.002-1.793-4.002-4.002c0-17.354,14.665-32.019,32.019-32.019 c2.209,0,4.002,1.793,4.002,4.002s-1.793,4.002-4.002,4.002c-13.016,0-24.014,10.999-24.014,24.014 C448.261,58.092,446.468,59.885,444.259,59.885z"/><path style="fill:#1A237E;" d="M456.266,59.885h-24.014c-2.209,0-4.002-1.793-4.002-4.002s1.793-4.002,4.002-4.002h24.014 c2.209,0,4.002,1.793,4.002,4.002S458.475,59.885,456.266,59.885z"/><path style="fill:#1A237E;" d="M357.007,75.894h-8.005c-2.209,0-4.002-1.793-4.002-4.002s1.793-4.002,4.002-4.002h8.005 c2.209,0,4.002,1.793,4.002,4.002S359.216,75.894,357.007,75.894z"/><path style="fill:#1A237E;" d="M332.993,75.894h-80.048c-2.209,0-4.002-1.793-4.002-4.002s1.793-4.002,4.002-4.002h80.048 c2.209,0,4.002,1.793,4.002,4.002S335.202,75.894,332.993,75.894z"/><path style="fill:#1A237E;" d="M188.907,51.88h-8.005c-2.209,0-4.002-1.793-4.002-4.002s1.793-4.002,4.002-4.002h8.005 c2.209,0,4.002,1.793,4.002,4.002S191.117,51.88,188.907,51.88z"/><path style="fill:#1A237E;" d="M284.964,51.88h-80.048c-2.209,0-4.002-1.793-4.002-4.002s1.793-4.002,4.002-4.002h80.048 c2.209,0,4.002,1.793,4.002,4.002S287.174,51.88,284.964,51.88z"/></g><path style="fill:#66BB6A;" d="M109.66,171.951c-18.411-8.005-40.024-8.005-59.235,2.401s-30.418,29.618-32.019,49.629 L109.66,171.951z"/><path style="fill:#1A237E;" d="M18.406,227.985c-0.744,0-1.497-0.208-2.145-0.624c-1.257-0.792-1.961-2.217-1.841-3.698 c1.801-22.485,14.553-42.233,34.1-52.831c19.42-10.518,42.289-11.447,62.741-2.554c1.393,0.6,2.321,1.945,2.401,3.458 s-0.696,2.946-2.017,3.69l-91.254,52.031C19.775,227.809,19.086,227.985,18.406,227.985z M82.38,170.23 c-10.374,0-20.668,2.554-30.05,7.637c-14.841,8.045-25.223,22.117-28.777,38.567l76.597-43.674 C94.315,171.071,88.335,170.23,82.38,170.23z"/><path style="fill:#66BB6A;" d="M109.66,171.951c18.411-8.005,40.024-8.005,59.235,3.202s29.618,29.618,32.019,49.629L109.66,171.951 z"/><g><path style="fill:#1A237E;" d="M200.914,228.785c-0.688,0-1.385-0.176-2.001-0.536l-91.254-52.831 c-1.313-0.752-2.073-2.185-1.993-3.69c0.088-1.505,1.009-2.834,2.401-3.442c20.748-9.021,43.658-7.773,62.845,3.41 c19.179,11.191,31.243,29.874,33.98,52.615c0.176,1.505-0.504,2.986-1.769,3.818C202.451,228.561,201.683,228.785,200.914,228.785z M119.098,172.792l76.341,44.194c-4.042-16.434-13.976-29.874-28.561-38.375C152.293,170.102,135.267,168.101,119.098,172.792z"/><path style="fill:#1A237E;" d="M328.19,488.139c-0.881,0-1.761-0.288-2.505-0.873c-1.729-1.385-2.001-3.898-0.624-5.627 l22.413-28.017c1.385-1.721,3.898-1.985,5.627-0.624c1.729,1.385,2.001,3.898,0.624,5.627l-22.413,28.017 C330.527,487.627,329.359,488.139,328.19,488.139z"/><path style="fill:#1A237E;" d="M480.28,488.139c-1.169,0-2.337-0.512-3.13-1.505l-22.413-28.017 c-1.377-1.729-1.105-4.242,0.624-5.627c1.745-1.369,4.251-1.097,5.627,0.624l22.413,28.017c1.377,1.729,1.105,4.243-0.624,5.627 C482.041,487.851,481.153,488.139,480.28,488.139z"/><path style="fill:#1A237E;" d="M464.271,460.123H336.195c-8.677,0-16.009-7.332-16.009-16.01s7.332-16.009,16.009-16.009h120.544 l26.816-33.716c2.978-3.57,7.46-5.787,12.047-5.988c4.243-0.216,7.941,1.257,10.734,4.058c3.234,2.674,5.451,7.164,5.651,11.751 c0.184,4.114-1.257,7.917-4.058,10.718l-31.723,39.696C473.996,457.953,469.458,460.123,464.271,460.123z M336.195,436.108 c-4.186,0-8.005,3.818-8.005,8.005c0,4.186,3.818,8.005,8.005,8.005h128.076c2.946,0,4.763-1.145,5.475-2.209l32.219-40.312 c1.833-1.849,2.081-3.73,2.017-5.027c-0.104-2.345-1.273-4.723-3.05-6.204c-1.801-1.777-3.674-2.057-4.979-1.961 c-2.337,0.104-4.715,1.273-6.196,3.05l-27.953,35.157c-0.76,0.953-1.913,1.505-3.138,1.505H336.195V436.108z"/></g></svg>